<?xml version="1.0" standalone="no"?>
<!DOCTYPE svg PUBLIC "-//W3C//DTD SVG 20010904//EN"
 "http://www.w3.org/TR/2001/REC-SVG-20010904/DTD/svg10.dtd">
<svg version="1.0" xmlns="http://www.w3.org/2000/svg"
 width="350.000000pt" height="45.000000pt" viewBox="0 0 350.000000 45.000000"
 preserveAspectRatio="xMidYMid meet">

<g transform="translate(0.000000,45.000000) scale(0.100000,-0.100000)"
fill="#000000" stroke="none">
<path d="M2474 439 c-19 -23 -50 -91 -69 -149 -19 -58 -37 -78 -100 -110 -22
-11 -34 -20 -26 -20 8 0 33 11 57 25 39 23 43 23 47 7 4 -16 5 -16 6 1 0 10
12 33 26 51 39 51 77 142 73 177 -2 26 -5 30 -14 18z"/>
<path d="M2638 313 c6 -2 18 -2 25 0 6 3 1 5 -13 5 -14 0 -19 -2 -12 -5z"/>
<path d="M2083 204 c-24 -14 -43 -28 -43 -31 0 -3 19 6 43 20 l42 25 25 -30
c19 -23 35 -30 70 -33 l45 -4 -39 8 c-25 5 -51 20 -68 40 -15 17 -29 31 -30
31 -2 0 -22 -12 -45 -26z"/>
<path d="M2575 213 c-16 -9 -61 -27 -100 -39 -38 -13 -63 -23 -54 -24 8 0 49
11 89 25 89 30 88 30 92 3 2 -13 11 -23 21 -24 14 -2 15 -1 1 3 -12 4 -15 13
-11 39 6 38 4 40 -38 17z"/>
<path d="M2877 224 c-3 -4 -41 -19 -84 -35 -43 -15 -73 -28 -66 -28 7 -1 43
10 80 24 71 25 84 25 63 0 -7 -8 -10 -22 -6 -30 7 -18 32 -10 102 34 l49 30
25 -30 c19 -24 35 -31 70 -34 l45 -4 -39 8 c-25 5 -51 20 -68 40 l-29 32 -58
-35 c-32 -20 -66 -36 -76 -36 -15 0 -14 4 5 35 16 27 18 35 7 35 -7 0 -17 -3
-20 -6z"/>
<path d="M3234 209 c-10 -12 -32 -28 -49 -35 -16 -7 -24 -13 -17 -14 7 0 21 4
31 10 13 6 30 3 59 -11 35 -18 48 -19 79 -10 l38 10 -35 -3 c-51 -5 -100 11
-100 33 0 18 19 31 43 31 7 -1 1 -10 -12 -20 -13 -11 -19 -20 -13 -20 13 0 42
28 42 41 0 17 -47 9 -66 -12z"/>
<path d="M3430 194 c-30 -19 -51 -34 -47 -34 13 0 105 49 112 60 10 17 -7 10
-65 -26z"/>
<path d="M2010 160 c-9 -6 -10 -10 -3 -10 6 0 15 5 18 10 8 12 4 12 -15 0z"/>
<path d="M2673 153 c9 -2 23 -2 30 0 6 3 -1 5 -18 5 -16 0 -22 -2 -12 -5z"/>
</g>
</svg>
